#!OML:ASF H:\ManfredETheater\Project 1\Capture day 1\Session 1\subject.ASF
:FULLY-SPECIFIED
:DEGREES
365
root 1.14055 17.2747 -31.3928 -162.468 -1.77209 -181.679
lowerback 5.98966 -0.191353 -0.357401
upperback -4.18049 -0.266691 1.89864
thorax -7.74332 -0.100803 2.2386
lowerneck -19.0187 -2.81086 -3.30122
upperneck 16.8869 -3.21791 0.883545
head 8.45776 -1.6812 0.421795
rclavicle 2.98177e-015 3.97569e-015
rhumerus -40.6453 -1.68562 -86.1143
rradius 50.6777
rwrist -5.06347
rhand -21.2544 -9.17203
rfingers 7.12502
rthumb 5.12874 -39.09
lclavicle 2.98177e-015 3.97569e-015
lhumerus -39.7022 1.31552 87.7055
lradius 40.2019
lwrist -7.72279
lhand -7.32344 7.60256
lfingers 7.12502
lthumb 18.5597 36.7372
rfemur -17.5974 -4.14949 17.2008
rtibia 41.3762
rfoot -24.2098 -17.5113
rtoes -38.7727
lfemur -17.859 -4.6152 -23.2919
ltibia 38.6699
lfoot -33.895 0.196409
ltoes 6.05582
366
root 1.12503 17.242 -31.4813 -162.23 -1.59855 -181.899
lowerback 6.36139 -0.191293 -0.528508
upperback -4.13737 -0.277598 1.80564
thorax -7.91308 -0.0938446 2.24185
lowerneck -19.0808 -2.78454 -3.28142
upperneck 16.6961 -3.17761 0.905012
head 8.40304 -1.65391 0.431879
rclavicle -1.39149e-015 -1.35174e-014
rhumerus -40.9265 -1.54678 -86.3215
rradius 51.698
rwrist -5.24737
rhand -21.3664 -8.648
rfingers 7.12502
rthumb 5.02062 -38.5685
lclavicle -1.39149e-015 -1.35174e-014
lhumerus -39.8191 0.708239 87.9663
lradius 40.9304
lwrist -7.23679
lhand -7.87069 7.43699
lfingers 7.12502
lthumb 18.0333 36.621
rfemur -18.7893 -4.33674 16.8928
rtibia 43.7323
rfoot -23.7964 -17.3967
rtoes -39.3946
lfemur -17.7857 -4.49905 -23.6344
ltibia 38.727
lfoot -34.0701 0.260191
ltoes 5.67765
367
root 1.10938 17.2076 -31.5693 -162.015 -1.42177 -182.116
lowerback 6.77469 -0.201813 -0.687944
upperback -4.0649 -0.302293 1.7094
thorax -8.07505 -0.0938444 2.23694
lowerneck -19.1803 -2.75111 -3.25697
upperneck 16.4747 -3.12766 0.937457
head 8.34442 -1.6197 0.445909
rclavicle 9.14409e-015 -1.03368e-014
rhumerus -41.2032 -1.42851 -86.5262
rradius 52.7393
rwrist -5.41422
rhand -21.5188 -7.9969
rfingers 7.12502
rthumb 4.87346 -37.9209
lclavicle 9.14409e-015 -1.03368e-014
lhumerus -39.9081 0.0679632 88.2453
lradius 41.7275
lwrist -6.71343
lhand -8.51126 7.19903
lfingers 7.12502
lthumb 17.4168 36.4387
rfemur -20.1028 -4.53798 16.5861
rtibia 46.3197
rfoot -23.1791 -17.2134
rtoes -39.8591
lfemur -17.7118 -4.39649 -23.9805
ltibia 38.8344
lfoot -34.2362 0.349722
ltoes 5.24031
368
root 1.09395 17.1713 -31.6566 -161.829 -1.24562 -182.323
lowerback 7.23036 -0.219494 -0.83076
upperback -3.96712 -0.336084 1.61233
thorax -8.23411 -0.0989482 2.22333
lowerneck -19.2915 -2.79942 -3.20501
upperneck 16.2164 -3.04453 0.962733
head 8.27496 -1.51547 0.464945
rclavicle 5.56597e-015 -3.57812e-014
rhumerus -41.4857 -1.33445 -86.7199
rradius 53.7861
rwrist -5.57397
rhand -21.7207 -7.25686
rfingers 7.12502
rthumb 4.67848 -37.1852
lclavicle 5.56597e-015 -3.57812e-014
lhumerus -39.9804 -0.603991 88.5426
lradius 42.6008
lwrist -6.15153
lhand -9.22428 6.88966
lfingers 7.12502
lthumb 16.7305 36.1887
rfemur -21.5289 -4.75387 16.2945
rtibia 49.1137
rfoot -22.3435 -16.9674
rtoes -40.1021
lfemur -17.64 -4.30808 -24.3209
ltibia 39.0022
lfoot -34.3948 0.462562
ltoes 4.74091
369
root 1.07896 17.1326 -31.7433 -161.677 -1.07236 -182.526
lowerback 7.7368 -0.248514 -0.967534
upperback -3.83808 -0.385703 1.51461
thorax -8.3883 -0.11192 2.20838
lowerneck -19.4245 -2.73946 -3.17836
upperneck 15.9159 -2.98527 1.0134
head 8.19549 -1.48377 0.484444
rclavicle 1.98785e-015 -5.56597e-015
rhumerus -41.7562 -1.25502 -86.9078
rradius 54.8127
rwrist -5.73066
rhand -21.9809 -6.47073
rfingers 7.12502
rthumb 4.42723 -36.4045
lclavicle 1.98785e-015 -5.56597e-015
lhumerus -40.0245 -1.29177 88.8452
lradius 43.5542
lwrist -5.54435
lhand -9.98309 6.52084
lfingers 7.12502
lthumb 15.9999 35.8801
rfemur -23.0515 -4.9901 16.019
rtibia 52.0815
rfoot -21.3268 -16.6652
rtoes -40.0824
lfemur -17.5654 -4.23417 -24.6589
ltibia 39.237
lfoot -34.5495 0.596197
ltoes 4.15416
370
root 1.06443 17.0915 -31.8296 -161.565 -0.909833 -182.727
lowerback 8.29225 -0.292011 -1.09992
upperback -3.67378 -0.456004 1.41692
thorax -8.53184 -0.135291 2.19479
lowerneck -19.5798 -2.67037 -3.14543
upperneck 15.5748 -2.91568 1.07068
head 8.10605 -1.44598 0.50633
rclavicle 8.94531e-015 8.74653e-015
rhumerus -42.007 -1.18129 -87.0887
rradius 55.7985
rwrist -5.89098
rhand -22.3172 -5.66804
rfingers 7.12502
rthumb 4.10246 -35.6083
lclavicle 8.94531e-015 8.74653e-015
lhumerus -40.0368 -1.97643 89.1417
lradius 44.6002
lwrist -4.89322
lhand -10.745 6.10783
lfingers 7.12502
lthumb 15.2662 35.5245
rfemur -24.656 -5.25811 15.7638
rtibia 55.1861
rfoot -20.2324 -16.3137
rtoes -39.8487
lfemur -17.4831 -4.17407 -24.9938
ltibia 39.5435
lfoot -34.7001 0.737469
ltoes 3.48384
